<?xml version="1.0" encoding="UTF-8" standalone="no"?>
<svg
   xmlns:dc="http://purl.org/dc/elements/1.1/"
   xmlns:cc="http://creativecommons.org/ns#"
   xmlns:rdf="http://www.w3.org/1999/02/22-rdf-syntax-ns#"
   xmlns:svg="http://www.w3.org/2000/svg"
   xmlns="http://www.w3.org/2000/svg"
   style="fill:#000000"
   id="svg32"
   viewBox="0 0 19.152454 19.152697"
   version="1.1"
   height="19.152889"
   width="19.152885"><defs
   id="defs36" />

id=&quot;defs5827&quot;&gt;
 <metadata
   id="metadata2">
  <rdf:RDF>
    <cc:Work
       rdf:about="">
      <dc:format>image/svg+xml</dc:format>
      <dc:type
         rdf:resource="http://purl.org/dc/dcmitype/StillImage" />
      <dc:title></dc:title>
    </cc:Work>
  </rdf:RDF>
</metadata>
<g
   id="g30"
   transform="matrix(0.81158,0,0,0.81158,-1.1467263,-1.3123021)">
  <path
     id="path4"
     style="fill:#000000;stroke:none;stroke-width:1.23220003;stroke-linecap:round;stroke-linejoin:round;paint-order:normal"
     d="M 19.979,17.886 C 21.8828,15.7336 21.9458,12.6084 21.5085,9.9169 20.6227,5.5672 16.4452,2.1714 11.9971,2.2376 7.6908,2.18017 3.5792,5.308 2.5368,9.4976 c -1.0943,4.0155 0.69011,8.6287 4.2735,10.78 2.8876,1.8018 6.6563,1.9185 9.7463,0.58374 0.74398,-0.42056 1.4304,-1.2325 1.9499,-0.10127 1.2016,1.2958 2.4348,2.5616 3.6545,3.8401 l 2.235,-2.235 c -1.4328,-1.532 -3.0012,-2.9311 -4.417,-4.4795 z m -8.0052,0.86263 c -3.4936,0.0979 -6.6856,-2.9662 -6.7546,-6.4586 -0.18645,-3.2696 2.3236,-6.4447 5.5743,-6.9495 3.1312,-0.58587 6.5215,1.3335 7.5446,4.3698 1.0957,2.9792 -0.20161,6.6492 -3.025,8.1596 -1.0124,0.57421 -2.1748,0.88351 -3.3392,0.87869 z" />
  <g
     style="fill:#000000"
     id="g28"
     transform="translate(-0.37185,-0.35216)">
    <path
       id="path8"
       d="m 7.0618,9.3862 c 1.1113,-0.5843 2.3174,-0.1693 3.4043,0.22697 1.419,0.41903 2.7035,-0.96102 4.121,-0.40638 1.0451,0.42156 2.1524,0.71748 3.2251,0.17942" />
    <path
       id="path16"
       d="m 7.0618,11.831 c 1.1113,-0.5843 2.3174,-0.1693 3.4043,0.22697 1.419,0.41903 2.7035,-0.96102 4.121,-0.40638 1.0451,0.42156 2.1524,0.71748 3.2251,0.17942" />
    <path
       id="path24"
       d="m 7.0618,14.275 c 1.1113,-0.5843 2.3174,-0.1693 3.4043,0.22697 1.419,0.41903 2.7035,-0.96102 4.121,-0.40638 1.0451,0.42156 2.1524,0.71748 3.2251,0.17942" />
  </g>
</g>
</svg>
